<svg width="512" height="512" viewBox="0 0 512 512" fill="none" xmlns="http://www.w3.org/2000/svg">
<rect width="512" height="512" rx="100" fill="url(#paint0_linear)"/>
<path d="M256 128C185.307 128 128 185.307 128 256C128 326.693 185.307 384 256 384C326.693 384 384 326.693 384 256C384 185.307 326.693 128 256 128ZM256 344C207.399 344 168 304.601 168 256C168 207.399 207.399 168 256 168C304.601 168 344 207.399 344 256C344 304.601 304.601 344 256 344Z" fill="white"/>
<path d="M256 216C233.909 216 216 233.909 216 256C216 278.091 233.909 296 256 296C278.091 296 296 278.091 296 256C296 233.909 278.091 216 256 216Z" fill="white"/>
<defs>
<linearGradient id="paint0_linear" x1="0" y1="0" x2="512" y2="512" gradientUnits="userSpaceOnUse">
<stop stop-color="#4F46E5"/>
<stop offset="1" stop-color="#10B981"/>
</linearGradient>
</defs>
</svg>
